<svg width="200" height="200" viewBox="0 0 200 200" fill="none" xmlns="http://www.w3.org/2000/svg">
<g clip-path="url(#clip0_1_137)">
<path d="M116.057 198.772C170.587 189.921 207.617 138.54 198.766 84.0096C189.914 29.4794 138.533 -7.55049 84.0029 1.30101C29.4727 10.1525 -7.55723 61.5335 1.29427 116.064C10.1458 170.594 61.5268 207.624 116.057 198.772Z" fill="url(#paint0_radial_1_137)"/>
<path d="M71.6084 151.049L63.2727 132.587C63.0567 132.124 62.7129 131.732 62.2818 131.458C61.8508 131.183 61.3503 131.037 60.8392 131.037C60.3281 131.037 59.8276 131.183 59.3965 131.458C58.9654 131.732 58.6217 132.124 58.4056 132.587L45.3706 161.455C45.193 161.778 45.0839 162.134 45.0501 162.501C45.0163 162.869 45.0585 163.239 45.174 163.589C45.2896 163.939 45.476 164.262 45.7218 164.537C45.9675 164.812 46.2673 165.033 46.6024 165.187C46.9374 165.341 47.3007 165.425 47.6694 165.432C48.0381 165.44 48.4044 165.371 48.7455 165.231C49.0866 165.091 49.3951 164.882 49.6518 164.617C49.9086 164.352 50.108 164.037 50.2378 163.692L60.8671 140.196L65.007 149.371H59.4126C58.7049 149.385 58.0301 149.672 57.5296 150.173C57.0291 150.673 56.7416 151.348 56.7273 152.056C56.7273 152.768 57.0102 153.451 57.5138 153.955C58.0174 154.458 58.7004 154.741 59.4126 154.741H67.4126L71.4406 163.692C71.667 164.155 72.0166 164.545 72.4509 164.822C72.8852 165.098 73.3874 165.249 73.9021 165.259C74.2736 165.306 74.6495 165.306 75.021 165.259C75.341 165.109 75.6283 164.897 75.8662 164.635C76.1042 164.374 76.2883 164.068 76.4078 163.736C76.5274 163.403 76.58 163.05 76.5629 162.697C76.5457 162.344 76.459 161.998 76.3077 161.678L71.6084 151.049ZM109.874 162.573C109.874 163.286 110.157 163.969 110.661 164.472C111.164 164.976 111.847 165.259 112.559 165.259C113.267 165.244 113.942 164.957 114.442 164.456C114.943 163.956 115.23 163.281 115.245 162.573V134.601L109.65 141.65L109.874 162.573ZM115.469 133.427C115.524 132.973 115.461 132.512 115.284 132.09C115.108 131.668 114.824 131.3 114.462 131.021C113.897 130.594 113.186 130.407 112.484 130.501C111.782 130.595 111.145 130.963 110.713 131.524L99.5245 145.455L88.3357 131.413C87.9952 130.916 87.4948 130.552 86.9179 130.38C86.3411 130.208 85.7227 130.239 85.1662 130.468C84.6096 130.698 84.1485 131.111 83.8599 131.639C83.5713 132.167 83.4726 132.778 83.5804 133.371V162.238C83.5947 162.945 83.8822 163.62 84.3828 164.121C84.8833 164.621 85.558 164.909 86.2658 164.923C86.9779 164.923 87.661 164.64 88.1646 164.137C88.6681 163.633 88.9511 162.95 88.9511 162.238V140.979L97.2308 151.608C97.4796 151.933 97.8022 152.194 98.1719 152.369C98.5416 152.544 98.9478 152.629 99.3567 152.615C99.7562 152.62 100.151 152.531 100.51 152.356C100.87 152.181 101.183 151.925 101.427 151.608L108.308 142.769L114.517 134.601C114.842 134.277 115.074 133.871 115.189 133.427H115.469ZM141.203 147.86L137.287 142.825L128.448 131.636C128.248 131.316 127.983 131.041 127.67 130.83C127.358 130.619 127.004 130.476 126.632 130.411C126.26 130.346 125.879 130.36 125.513 130.452C125.147 130.544 124.805 130.712 124.508 130.946C124.211 131.179 123.967 131.472 123.792 131.806C123.616 132.14 123.513 132.507 123.488 132.884C123.464 133.261 123.52 133.638 123.651 133.992C123.783 134.346 123.987 134.668 124.252 134.937L136.448 151.049V162.741C136.448 163.453 136.73 164.136 137.234 164.64C137.738 165.144 138.421 165.427 139.133 165.427C139.841 165.412 140.515 165.125 141.016 164.624C141.516 164.124 141.804 163.449 141.818 162.741V151.049C141.9 150.086 141.664 149.123 141.147 148.308L141.203 147.86ZM154.126 131.077C153.552 130.646 152.832 130.458 152.121 130.552C151.41 130.646 150.764 131.015 150.322 131.58L139.413 145.455L141.091 147.524C141.783 148.334 142.229 149.324 142.378 150.378L142.993 149.538L143.664 148.699L154.294 135.049C154.538 134.759 154.72 134.422 154.83 134.06C154.94 133.697 154.975 133.316 154.934 132.939C154.892 132.562 154.774 132.198 154.587 131.868C154.4 131.539 154.148 131.25 153.846 131.021L154.126 131.077Z" fill="url(#paint1_linear_1_137)"/>
<path d="M160.168 76.4196C158.312 76.1664 156.43 76.1664 154.573 76.4196C153.968 76.4915 153.355 76.4253 152.779 76.2258C152.203 76.0263 151.68 75.6988 151.249 75.268C150.819 74.8371 150.491 74.3141 150.292 73.7384C150.092 73.1626 150.026 72.5491 150.098 71.944C150.295 70.0844 150.295 68.2092 150.098 66.3496C149.504 60.2251 146.575 54.5643 141.918 50.5419C137.262 46.5194 131.235 44.444 125.09 44.7462C118.944 45.0485 113.15 47.7052 108.911 52.1652C104.671 56.6252 102.312 62.546 102.322 68.6993V124.084H157.706C163.86 124.094 169.78 121.734 174.24 117.495C178.7 113.255 181.357 107.462 181.659 101.316C181.962 95.1702 179.886 89.1438 175.864 84.4874C171.841 79.8309 166.18 76.9018 160.056 76.3077L160.168 76.4196Z" fill="url(#paint2_radial_1_137)"/>
<path d="M134.601 124.196C127.708 124.193 121.076 121.556 116.063 116.824C111.051 112.092 108.036 105.623 107.636 98.7412V62.2657C107.651 58.6423 106.948 55.0518 105.566 51.7021C104.185 48.3523 102.153 45.3096 99.5879 42.75C97.0232 40.1905 93.9764 38.1647 90.6238 36.7901C87.2712 35.4154 83.6793 34.719 80.0559 34.7412C73.0353 34.9009 66.3526 37.7876 61.4236 42.7897C56.4947 47.7917 53.7067 54.5162 53.6504 61.5384C53.6487 62.9438 53.761 64.347 53.986 65.7342C54.0836 66.3565 54.0317 66.9931 53.8348 67.5914C53.6378 68.1897 53.3014 68.7326 52.8533 69.1753C52.4052 69.618 51.8582 69.9477 51.2575 70.1373C50.6568 70.3269 50.0196 70.3709 49.3986 70.2657C47.4471 70.04 45.476 70.04 43.5245 70.2657C36.3729 70.4883 29.6026 73.5427 24.7031 78.757C19.8035 83.9713 17.176 90.9183 17.3986 98.0699C17.6212 105.221 20.6756 111.992 25.8899 116.891C31.1042 121.791 38.0512 124.418 45.2028 124.196H134.713H134.601Z" fill="url(#paint3_radial_1_137)"/>
<path d="M45.2028 124.196H134.713C128.514 124.267 122.48 122.204 117.621 118.354C112.762 114.504 109.375 109.1 108.028 103.049H18.5175C19.8647 109.1 23.2517 114.504 28.1104 118.354C32.969 122.204 39.0039 124.267 45.2028 124.196Z" fill="url(#paint4_linear_1_137)"/>
</g>
<defs>
<radialGradient id="paint0_radial_1_137" cx="0" cy="0" r="1" gradientUnits="userSpaceOnUse" gradientTransform="translate(100.002 100.069) scale(139.86 139.86)">
<stop offset="0.44" stop-color="white"/>
<stop offset="0.66" stop-color="#F9F9F9"/>
<stop offset="0.96" stop-color="#E8E9EA"/>
<stop offset="1" stop-color="#E5E6E7"/>
</radialGradient>
<linearGradient id="paint1_linear_1_137" x1="99.972" y1="138.573" x2="99.972" y2="189.427" gradientUnits="userSpaceOnUse">
<stop stop-color="#F79421"/>
<stop offset="1" stop-color="#FCBF80"/>
</linearGradient>
<radialGradient id="paint2_radial_1_137" cx="0" cy="0" r="1" gradientUnits="userSpaceOnUse" gradientTransform="translate(128.379 61.0182) rotate(24.86) scale(61.986 47.7292)">
<stop offset="0.07" stop-color="#DBF0F4"/>
<stop offset="1" stop-color="#A8DDE4"/>
</radialGradient>
<radialGradient id="paint3_radial_1_137" cx="0" cy="0" r="1" gradientUnits="userSpaceOnUse" gradientTransform="translate(78.3469 51.1211) rotate(-45) scale(89.315 80.5093)">
<stop offset="0.05" stop-color="#FED4AF"/>
<stop offset="0.11" stop-color="#FDCC9D"/>
<stop offset="0.46" stop-color="#F9A444"/>
<stop offset="0.62" stop-color="#F79421"/>
</radialGradient>
<linearGradient id="paint4_linear_1_137" x1="76.7552" y1="104.615" x2="76.7552" y2="137.231" gradientUnits="userSpaceOnUse">
<stop offset="0.21" stop-color="#F79421"/>
<stop offset="0.29" stop-color="#F89C33"/>
<stop offset="0.46" stop-color="#FAB161"/>
<stop offset="0.56" stop-color="#FCBF80"/>
<stop offset="0.58" stop-color="#FBBA76"/>
<stop offset="0.7" stop-color="#F9A648"/>
<stop offset="0.8" stop-color="#F8992C"/>
<stop offset="0.85" stop-color="#F79421"/>
</linearGradient>
<clipPath id="clip0_1_137">
<rect width="200" height="200" fill="white"/>
</clipPath>
</defs>
</svg>
