<svg width="446" height="49" viewBox="0 0 446 49" fill="none" xmlns="http://www.w3.org/2000/svg">
<g clip-path="url(#clip0_57_1456)">
<path d="M44.05 1.21001C42.84 1.21001 41.92 1.77001 41.27 2.90001L24.65 37.11C24.32 37.8 23.33 37.8 22.99 37.12L5.91 2.90001C5.27 1.77001 4.35 1.21001 3.14 1.21001C2.25 1.21001 1.51 1.51001 0.91 2.12001C0.3 2.72001 0 3.46001 0 4.35001V45.2C0 46.09 0.3 46.83 0.91 47.44C1.51 48.04 2.25 48.34 3.14 48.34C4.02 48.34 4.77 48.04 5.37 47.44C5.98 46.84 6.28 46.09 6.28 45.2V19.67C6.28 18.69 7.59 18.39 8.03 19.26L20.7 44.66C21.3 45.91 22.27 46.53 23.59 46.53C24.72 46.53 25.62 46.01 26.3 44.96L39.15 18.78C39.58 17.9 40.9 18.21 40.9 19.19V45.2C40.9 46.09 41.2 46.83 41.8 47.44C42.4 48.04 43.15 48.34 44.03 48.34C44.88 48.34 45.61 48.04 46.23 47.44C46.86 46.84 47.17 46.09 47.17 45.2V4.35001C47.17 3.46001 46.87 2.72001 46.27 2.12001C45.68 1.51001 44.94 1.21001 44.05 1.21001ZM92.59 2.05001C92.09 1.49001 91.45 1.20001 90.69 1.20001C89.48 1.20001 88.56 1.70001 87.91 2.71001L74.33 24.11C73.97 24.68 73.13 24.68 72.77 24.11L59.44 2.96001C59.04 2.36001 58.63 1.91001 58.23 1.63001C57.83 1.35001 57.31 1.21001 56.66 1.21001C55.81 1.21001 55.08 1.49001 54.46 2.06001C53.83 2.62001 53.52 3.33001 53.52 4.17001C53.52 4.77001 53.74 5.42001 54.18 6.10001L70.15 30.91C70.25 31.06 70.3 31.23 70.3 31.41V45.2C70.3 46.09 70.6 46.83 71.2 47.44C71.8 48.04 72.53 48.34 73.37 48.34C74.25 48.34 75 48.04 75.6 47.44C76.2 46.84 76.5 46.09 76.5 45.2V31.41C76.5 31.23 76.55 31.06 76.65 30.91L92.74 6.10001C93.14 5.46001 93.35 4.79001 93.35 4.11001C93.35 3.30001 93.1 2.62001 92.59 2.05001Z" fill="#00A1E8"/>
<path d="M143.1 0.600011H115.83C114.94 0.600011 114.2 0.890011 113.6 1.47001C112.99 2.05001 112.69 2.81001 112.69 3.73001V44.58C112.69 45.47 112.99 46.21 113.6 46.82C114.2 47.42 114.94 47.72 115.83 47.72C116.71 47.72 117.46 47.42 118.06 46.82C118.66 46.22 118.97 45.47 118.97 44.58V27.77C118.97 27.26 119.38 26.85 119.89 26.85H136.28C137.17 26.85 137.9 26.58 138.48 26.04C139.06 25.5 139.35 24.81 139.35 23.96C139.35 23.11 139.06 22.42 138.48 21.88C137.9 21.34 137.16 21.06 136.28 21.06H119.89C119.38 21.06 118.97 20.65 118.97 20.14V7.32001C118.97 6.81001 119.38 6.40001 119.89 6.40001H143.1C144.03 6.40001 144.77 6.14001 145.33 5.62001C145.89 5.10001 146.18 4.41001 146.18 3.57001C146.18 2.69001 145.9 1.97001 145.33 1.43001C144.77 0.870011 144.02 0.600011 143.1 0.600011ZM157.34 0.600011C156.45 0.600011 155.71 0.890011 155.11 1.47001C154.5 2.05001 154.2 2.81001 154.2 3.73001V44.58C154.2 45.47 154.5 46.21 155.11 46.82C155.71 47.42 156.45 47.72 157.34 47.72C158.26 47.72 159.02 47.42 159.6 46.82C160.18 46.22 160.47 45.47 160.47 44.58V3.74001C160.47 2.82001 160.18 2.06001 159.6 1.48001C159.02 0.900011 158.26 0.600011 157.34 0.600011ZM227.39 20.7C223.04 20.26 220.03 19.33 218.34 17.92C216.65 16.51 215.81 14.76 215.81 12.67C215.81 10.42 216.75 8.70001 218.64 7.51001C220.53 6.32001 223.01 5.73001 226.06 5.73001C228.55 5.73001 230.62 6.20001 232.24 7.15001C233.87 8.09001 235.23 9.47001 236.32 11.28C236.6 11.8 237 12.22 237.53 12.52C238.05 12.82 238.62 12.97 239.22 12.97C239.83 12.97 240.35 12.83 240.79 12.55C241.6 11.99 242 11.26 242 10.38C242 9.69001 241.76 8.97001 241.28 8.21001C239.63 5.60001 237.62 3.59001 235.25 2.18001C232.88 0.770011 229.96 0.070011 226.5 0.070011C223.32 0.070011 220.46 0.560011 217.9 1.55001C215.35 2.54001 213.33 3.96001 211.87 5.83001C210.4 7.70001 209.67 9.93001 209.67 12.5C209.67 16.16 211.1 19.21 213.95 21.64C216.81 24.07 220.73 25.53 225.72 26.01C229.34 26.37 232.03 27.37 233.81 29C235.58 30.63 236.46 32.59 236.46 34.88C236.46 37.29 235.41 39.19 233.32 40.58C231.23 41.97 228.67 42.66 225.66 42.66C223.08 42.66 220.73 42.12 218.6 41.03C216.47 39.95 215.04 38.62 214.32 37.05C214.04 36.41 213.6 35.89 213.02 35.51C212.44 35.13 211.82 34.94 211.18 34.94C210.9 34.94 210.7 34.96 210.57 35C209.81 35.16 209.2 35.47 208.76 35.94C208.31 36.4 208.09 36.94 208.09 37.54C208.09 37.86 208.19 38.26 208.39 38.75C209.6 41.6 211.8 43.92 215 45.69C218.2 47.46 221.75 48.35 225.65 48.35C228.63 48.35 231.41 47.84 234 46.81C236.6 45.78 238.68 44.24 240.25 42.17C241.82 40.1 242.6 37.61 242.6 34.71C242.6 30.73 241.27 27.52 238.62 25.09C235.96 22.64 232.22 21.18 227.39 20.7ZM279.83 0.600011H247.55C246.71 0.600011 246.01 0.870011 245.47 1.41001C244.93 1.95001 244.66 2.65001 244.66 3.49001C244.66 4.33001 244.93 5.03001 245.47 5.57001C246.01 6.11001 246.71 6.38001 247.55 6.38001H259.66C260.17 6.38001 260.58 6.79001 260.58 7.30001V44.57C260.58 45.46 260.88 46.2 261.48 46.81C262.08 47.41 262.83 47.71 263.71 47.71C264.6 47.71 265.34 47.41 265.95 46.81C266.55 46.21 266.85 45.46 266.85 44.57V7.32001C266.85 6.81001 267.26 6.40001 267.77 6.40001H279.82C280.66 6.40001 281.36 6.13001 281.9 5.59001C282.44 5.05001 282.71 4.35001 282.71 3.51001C282.71 2.66001 282.44 1.97001 281.9 1.43001C281.37 0.870011 280.67 0.600011 279.83 0.600011ZM298.5 6.45001C301.58 4.56001 304.89 3.61001 308.43 3.61001C313.46 3.61001 317.5 4.98001 320.56 7.71001C321.12 8.19001 321.62 8.43001 322.07 8.43001C322.63 8.43001 323.08 8.24001 323.4 7.86001C323.72 7.48001 323.88 7.05001 323.88 6.56001C323.88 6.04001 323.7 5.63001 323.34 5.35001C319.04 1.77001 314.07 -0.019989 308.44 -0.019989C304.14 -0.019989 300.18 1.08001 296.58 3.27001C292.98 5.47001 290.13 8.41001 288.01 12.11C285.9 15.81 284.84 19.81 284.84 24.12C284.84 28.42 285.91 32.44 288.04 36.16C290.17 39.88 293.05 42.84 296.67 45.03C300.29 47.22 304.21 48.32 308.44 48.32C314.87 48.32 319.82 46.59 323.28 43.13C323.56 42.81 323.7 42.39 323.7 41.86C323.7 41.34 323.51 40.9 323.13 40.53C322.75 40.17 322.32 39.99 321.83 39.99C321.51 39.99 321.2 40.09 320.92 40.29C317.34 43.23 313.18 44.7 308.43 44.7C304.85 44.7 301.52 43.78 298.44 41.92C295.36 40.07 292.93 37.57 291.14 34.41C289.35 31.25 288.45 27.82 288.45 24.12C288.45 20.54 289.35 17.17 291.16 14.02C292.98 10.87 295.43 8.35001 298.5 6.45001ZM443.47 44.11H417.18C416.67 44.11 416.26 43.7 416.26 43.19V26.93C416.26 26.42 416.67 26.01 417.18 26.01H436.23C436.75 26.01 437.19 25.83 437.53 25.47C437.87 25.11 438.04 24.66 438.04 24.14C438.04 23.62 437.87 23.19 437.53 22.84C437.19 22.5 436.75 22.33 436.23 22.33H417.18C416.67 22.33 416.26 21.92 416.26 21.41V5.15001C416.26 4.64001 416.67 4.23001 417.18 4.23001H443.47C443.95 4.23001 444.37 4.05001 444.74 3.69001C445.1 3.33001 445.28 2.91001 445.28 2.42001C445.28 1.90001 445.1 1.46001 444.74 1.12001C444.38 0.780011 443.96 0.600011 443.47 0.600011H414.44C413.92 0.600011 413.48 0.770011 413.14 1.12001C412.8 1.46001 412.63 1.89001 412.63 2.42001V45.92C412.63 46.44 412.8 46.88 413.14 47.22C413.48 47.56 413.91 47.73 414.44 47.73H443.47C443.95 47.73 444.37 47.56 444.74 47.22C445.1 46.88 445.28 46.44 445.28 45.92C445.28 45.44 445.1 45.02 444.74 44.65C444.37 44.29 443.95 44.11 443.47 44.11ZM194.43 28.91C194.15 28.45 194.33 27.87 194.8 27.62C196.87 26.51 198.54 24.99 199.81 23.05C201.26 20.84 201.98 18.3 201.98 15.45C201.98 12.55 201.33 9.98001 200.02 7.72001C198.71 5.47001 196.88 3.72001 194.53 2.47001C192.18 1.22001 189.51 0.600011 186.53 0.600011H175.67C174.78 0.600011 174.04 0.890011 173.43 1.47001C172.83 2.05001 172.53 2.81001 172.53 3.73001V44.58C172.53 45.47 172.83 46.21 173.43 46.82C174.04 47.42 174.78 47.72 175.67 47.72C176.59 47.72 177.35 47.42 177.93 46.82C178.51 46.22 178.8 45.47 178.8 44.58V7.32001C178.8 6.81001 179.21 6.40001 179.72 6.40001H186.52C189.25 6.40001 191.51 7.25001 193.28 8.93001C195.05 10.62 195.93 12.79 195.93 15.45C195.93 17.9 195.05 19.91 193.28 21.45C191.75 22.79 189.85 23.51 187.61 23.7V23.73C186.12 23.83 184.93 25.04 184.93 26.55C184.93 27.37 185.29 28.1 185.84 28.62L185.83 28.63C185.83 28.63 188.25 30.6 189.35 32.38L197.98 46.23C198.63 47.24 199.53 47.74 200.7 47.74C201.62 47.74 202.36 47.47 202.9 46.93C203.44 46.39 203.72 45.71 203.72 44.91C203.72 44.23 203.52 43.57 203.11 42.92L194.43 28.91ZM350.61 1.87001C350.25 1.02001 349.67 0.600011 348.86 0.600011C348.01 0.600011 347.43 1.02001 347.11 1.87001L328.83 45.13C328.71 45.37 328.65 45.63 328.65 45.91C328.65 46.39 328.81 46.82 329.13 47.18C329.45 47.54 329.89 47.72 330.46 47.72C331.3 47.72 331.87 47.34 332.15 46.58L335.86 37.71V37.7L336.61 35.9H336.62L338.95 30.37L348.01 8.62001C348.33 7.86001 349.4 7.86001 349.71 8.62001L359.24 31.37C359.49 31.98 359.05 32.65 358.39 32.65H340.73C339.83 32.65 339.1 33.38 339.1 34.28C339.1 35.18 339.83 35.91 340.73 35.91H360.55C360.92 35.91 361.26 36.13 361.4 36.48L365.63 46.59C365.95 47.35 366.51 47.73 367.32 47.73C367.8 47.73 368.22 47.55 368.59 47.19C368.95 46.83 369.13 46.41 369.13 45.92C369.13 45.64 369.07 45.38 368.95 45.14L350.61 1.87001ZM394.85 29.34C394.54 28.84 394.79 28.2 395.35 28C397.93 27.06 400.02 25.54 401.63 23.44C403.46 21.05 404.38 18.2 404.38 14.9C404.38 12.12 403.73 9.65001 402.45 7.48001C401.16 5.31001 399.37 3.62001 397.08 2.41001C394.79 1.20001 392.2 0.600011 389.3 0.600011H377.78C377.26 0.600011 376.82 0.760011 376.48 1.08001C376.14 1.40001 375.97 1.84001 375.97 2.41001V45.91C375.97 46.43 376.14 46.87 376.48 47.21C376.82 47.55 377.26 47.72 377.78 47.72C378.34 47.72 378.79 47.55 379.11 47.21C379.43 46.87 379.59 46.43 379.59 45.91V5.15001C379.59 4.64001 380 4.23001 380.51 4.23001H389.3C391.51 4.23001 393.49 4.68001 395.21 5.59001C396.94 6.49001 398.3 7.76001 399.28 9.39001C400.27 11.02 400.76 12.86 400.76 14.91C400.76 16.92 400.27 18.73 399.28 20.34C398.29 21.95 396.94 23.2 395.21 24.08C393.48 24.97 391.51 25.41 389.3 25.41H382.86H382.85C381.85 25.41 381.04 26.22 381.04 27.22C381.04 28.22 381.85 29.03 382.85 29.03H389.52C389.52 29.03 390.36 29 390.8 29.69L401.49 46.77C401.69 47.09 401.91 47.33 402.15 47.49C402.4 47.65 402.71 47.73 403.12 47.73C403.76 47.73 404.26 47.61 404.6 47.37C404.94 47.13 405.12 46.79 405.12 46.34C405.12 45.98 404.96 45.52 404.64 44.95L394.85 29.34Z" fill="url(#paint0_linear_57_1456)"/>
</g>
<defs>
<linearGradient id="paint0_linear_57_1456" x1="451.964" y1="24.1662" x2="115.647" y2="24.1662" gradientUnits="userSpaceOnUse">
<stop stop-color="#EC1C24"/>
<stop offset="0.1919" stop-color="#E81920"/>
<stop offset="0.4021" stop-color="#DA1116"/>
<stop offset="0.6204" stop-color="#C50304"/>
<stop offset="0.6661" stop-color="#BF0000"/>
<stop offset="0.8021" stop-color="#DE1319"/>
<stop offset="0.8593" stop-color="#EC1C24"/>
</linearGradient>
<clipPath id="clip0_57_1456">
<rect width="445.28" height="48.33" fill="white"/>
</clipPath>
</defs>
</svg>
