<svg width="1772" height="405" viewBox="0 0 1772 405" fill="none" xmlns="http://www.w3.org/2000/svg">
<rect width="1772" height="405" fill="#D9D9D9"/>
<circle cx="190" cy="164" r="95" fill="#024F96"/>
<path d="M136.916 321.54C134.804 321.54 132.992 321.012 131.48 319.956C129.968 318.9 128.804 317.388 127.988 315.42C127.196 313.452 126.8 311.124 126.8 308.436C126.8 305.748 127.196 303.42 127.988 301.452C128.78 299.484 129.932 297.972 131.444 296.916C132.956 295.836 134.78 295.296 136.916 295.296C139.052 295.296 140.876 295.836 142.388 296.916C143.9 297.972 145.052 299.484 145.844 301.452C146.636 303.42 147.032 305.748 147.032 308.436C147.032 311.124 146.624 313.452 145.808 315.42C145.016 317.388 143.864 318.9 142.352 319.956C140.84 321.012 139.028 321.54 136.916 321.54ZM136.916 319.164C138.428 319.164 139.736 318.732 140.84 317.868C141.968 316.98 142.832 315.732 143.432 314.124C144.056 312.492 144.368 310.596 144.368 308.436C144.368 306.276 144.068 304.392 143.468 302.784C142.892 301.176 142.04 299.928 140.912 299.04C139.784 298.152 138.452 297.708 136.916 297.708C135.38 297.708 134.048 298.152 132.92 299.04C131.792 299.928 130.928 301.176 130.328 302.784C129.752 304.392 129.464 306.276 129.464 308.436C129.464 310.596 129.764 312.492 130.364 314.124C130.988 315.732 131.852 316.98 132.956 317.868C134.084 318.732 135.404 319.164 136.916 319.164ZM150.636 319.128L156.54 313.224L158.268 311.568C159.66 310.224 160.728 309.144 161.472 308.328C162.216 307.488 162.828 306.6 163.308 305.664C163.788 304.704 164.028 303.684 164.028 302.604C164.028 301.044 163.56 299.844 162.624 299.004C161.712 298.14 160.344 297.708 158.52 297.708C156.264 297.708 154.044 298.524 151.86 300.156V297.42C153.828 296.004 156.18 295.296 158.916 295.296C161.388 295.296 163.32 295.968 164.712 297.312C166.128 298.632 166.836 300.396 166.836 302.604C166.836 303.756 166.572 304.884 166.044 305.988C165.516 307.068 164.784 308.16 163.848 309.264C162.936 310.344 161.688 311.676 160.104 313.26L154.776 318.624H167.844V321H150.636V319.128ZM183.22 314.592H170.728V312.576L183.04 295.836H186.028V312.216H189.916V314.592H186.028V321H183.22V314.592ZM183.436 312.216V299.292L174.04 312.216H183.436ZM193.508 295.836H209.708V298.212H196.316V307.212H206.36V309.588H196.316V321H193.508V295.836ZM218.953 321.54C217.729 321.54 216.673 321.42 215.785 321.18V318.696C216.649 318.984 217.633 319.128 218.737 319.128C221.569 319.128 223.705 318.276 225.145 316.572C226.585 314.868 227.425 312.288 227.665 308.832C227.017 309.84 226.081 310.608 224.857 311.136C223.633 311.64 222.265 311.892 220.753 311.892C219.145 311.892 217.717 311.556 216.469 310.884C215.245 310.212 214.285 309.252 213.589 308.004C212.917 306.756 212.581 305.316 212.581 303.684C212.581 302.052 212.941 300.612 213.661 299.364C214.381 298.092 215.401 297.096 216.721 296.376C218.065 295.656 219.637 295.296 221.437 295.296C224.197 295.296 226.405 296.184 228.061 297.96C229.741 299.736 230.581 302.352 230.581 305.808C230.581 310.92 229.597 314.82 227.629 317.508C225.661 320.196 222.769 321.54 218.953 321.54ZM221.437 309.48C223.189 309.48 224.641 308.952 225.793 307.896C226.969 306.84 227.557 305.4 227.557 303.576C227.557 302.52 227.293 301.548 226.765 300.66C226.261 299.748 225.541 299.028 224.605 298.5C223.693 297.948 222.637 297.672 221.437 297.672C219.613 297.672 218.149 298.224 217.045 299.328C215.941 300.408 215.389 301.86 215.389 303.684C215.389 305.508 215.929 306.936 217.009 307.968C218.113 308.976 219.589 309.48 221.437 309.48ZM243.311 321.54C241.583 321.54 240.023 321.144 238.631 320.352C237.263 319.56 236.171 318.372 235.355 316.788C234.563 315.204 234.167 313.284 234.167 311.028C234.167 305.916 235.151 302.016 237.119 299.328C239.087 296.64 241.979 295.296 245.795 295.296C247.019 295.296 248.075 295.416 248.963 295.656V298.14C248.099 297.852 247.115 297.708 246.011 297.708C243.179 297.708 241.043 298.56 239.603 300.264C238.187 301.968 237.359 304.56 237.119 308.04C237.767 307.032 238.703 306.264 239.927 305.736C241.151 305.208 242.507 304.944 243.995 304.944C245.603 304.944 247.019 305.28 248.243 305.952C249.491 306.624 250.451 307.584 251.123 308.832C251.819 310.08 252.167 311.52 252.167 313.152C252.167 314.784 251.807 316.236 251.087 317.508C250.367 318.756 249.335 319.74 247.991 320.46C246.671 321.18 245.111 321.54 243.311 321.54ZM243.311 319.164C245.135 319.164 246.599 318.624 247.703 317.544C248.807 316.44 249.359 314.976 249.359 313.152C249.359 311.328 248.807 309.912 247.703 308.904C246.623 307.872 245.159 307.356 243.311 307.356C241.559 307.356 240.095 307.884 238.919 308.94C237.767 309.996 237.191 311.436 237.191 313.26C237.191 314.316 237.443 315.3 237.947 316.212C238.475 317.1 239.195 317.82 240.107 318.372C241.043 318.9 242.111 319.164 243.311 319.164Z" fill="black"/>
<circle cx="1582" cy="164" r="95" fill="#981F15"/>
<path d="M1535.17 321.54C1533.95 321.54 1532.89 321.42 1532 321.18V318.696C1532.87 318.984 1533.85 319.128 1534.96 319.128C1537.79 319.128 1539.92 318.276 1541.36 316.572C1542.8 314.868 1543.64 312.288 1543.88 308.832C1543.24 309.84 1542.3 310.608 1541.08 311.136C1539.85 311.64 1538.48 311.892 1536.97 311.892C1535.36 311.892 1533.94 311.556 1532.69 310.884C1531.46 310.212 1530.5 309.252 1529.81 308.004C1529.14 306.756 1528.8 305.316 1528.8 303.684C1528.8 302.052 1529.16 300.612 1529.88 299.364C1530.6 298.092 1531.62 297.096 1532.94 296.376C1534.28 295.656 1535.86 295.296 1537.66 295.296C1540.42 295.296 1542.62 296.184 1544.28 297.96C1545.96 299.736 1546.8 302.352 1546.8 305.808C1546.8 310.92 1545.82 314.82 1543.85 317.508C1541.88 320.196 1538.99 321.54 1535.17 321.54ZM1537.66 309.48C1539.41 309.48 1540.86 308.952 1542.01 307.896C1543.19 306.84 1543.78 305.4 1543.78 303.576C1543.78 302.52 1543.51 301.548 1542.98 300.66C1542.48 299.748 1541.76 299.028 1540.82 298.5C1539.91 297.948 1538.86 297.672 1537.66 297.672C1535.83 297.672 1534.37 298.224 1533.26 299.328C1532.16 300.408 1531.61 301.86 1531.61 303.684C1531.61 305.508 1532.15 306.936 1533.23 307.968C1534.33 308.976 1535.81 309.48 1537.66 309.48ZM1559.24 321.54C1556.51 321.54 1554.35 320.916 1552.76 319.668C1551.18 318.396 1550.39 316.584 1550.39 314.232C1550.39 312.552 1550.84 311.16 1551.75 310.056C1552.67 308.928 1553.87 308.184 1555.35 307.824C1554.11 307.416 1553.11 306.696 1552.37 305.664C1551.65 304.632 1551.29 303.42 1551.29 302.028C1551.29 299.964 1552.01 298.332 1553.45 297.132C1554.91 295.908 1556.84 295.296 1559.24 295.296C1561.64 295.296 1563.56 295.908 1565 297.132C1566.47 298.332 1567.2 299.964 1567.2 302.028C1567.2 303.42 1566.83 304.632 1566.08 305.664C1565.36 306.696 1564.38 307.416 1563.13 307.824C1564.62 308.184 1565.82 308.928 1566.73 310.056C1567.64 311.16 1568.1 312.552 1568.1 314.232C1568.1 316.584 1567.31 318.396 1565.72 319.668C1564.14 320.916 1561.98 321.54 1559.24 321.54ZM1559.24 306.852C1560.78 306.852 1562.01 306.432 1562.95 305.592C1563.91 304.752 1564.39 303.648 1564.39 302.28C1564.39 300.864 1563.92 299.724 1562.99 298.86C1562.05 297.972 1560.8 297.528 1559.24 297.528C1557.68 297.528 1556.43 297.972 1555.5 298.86C1554.56 299.724 1554.09 300.864 1554.09 302.28C1554.09 303.648 1554.56 304.752 1555.5 305.592C1556.46 306.432 1557.71 306.852 1559.24 306.852ZM1559.24 319.452C1561.16 319.452 1562.65 318.972 1563.71 318.012C1564.76 317.052 1565.29 315.72 1565.29 314.016C1565.29 312.408 1564.73 311.136 1563.6 310.2C1562.49 309.24 1561.04 308.76 1559.24 308.76C1557.44 308.76 1555.98 309.24 1554.85 310.2C1553.75 311.136 1553.19 312.408 1553.19 314.016C1553.19 315.72 1553.72 317.052 1554.78 318.012C1555.83 318.972 1557.32 319.452 1559.24 319.452ZM1577.27 298.896L1571.69 302.928V300.156L1577.56 295.836H1580.08V321H1577.27V298.896ZM1585.1 295.836H1601.3V298.212H1587.91V307.212H1597.95V309.588H1587.91V321H1585.1V295.836ZM1609.76 298.896L1604.18 302.928V300.156L1610.04 295.836H1612.56V321H1609.76V298.896ZM1623.71 321.54C1622.43 321.54 1621.19 321.408 1619.96 321.144C1618.76 320.88 1617.73 320.52 1616.87 320.064V317.364C1617.8 317.916 1618.88 318.348 1620.11 318.66C1621.33 318.972 1622.51 319.128 1623.63 319.128C1625.94 319.128 1627.69 318.612 1628.89 317.58C1630.11 316.524 1630.73 315.024 1630.73 313.08C1630.73 309.36 1628.53 307.5 1624.14 307.5C1623.23 307.5 1622.28 307.584 1621.29 307.752C1620.33 307.92 1619.49 308.148 1618.77 308.436L1617.41 307.644L1618.34 295.836H1631.7V298.212H1620.86L1620.29 305.448C1621.7 305.112 1623.25 304.944 1624.93 304.944C1626.71 304.944 1628.24 305.292 1629.54 305.988C1630.83 306.66 1631.82 307.608 1632.49 308.832C1633.19 310.056 1633.53 311.472 1633.53 313.08C1633.53 315.768 1632.72 317.856 1631.09 319.344C1629.45 320.808 1626.99 321.54 1623.71 321.54Z" fill="black"/>
<circle cx="1350" cy="164" r="95" fill="#EC1C24"/>
<path d="M1288.52 295.836H1304.72V298.212H1291.33V307.212H1301.37V309.588H1291.33V318.624H1304.72V321H1288.52V295.836ZM1321.02 321.54C1318.47 321.54 1316.19 321 1314.18 319.92C1312.18 318.84 1310.62 317.316 1309.5 315.348C1308.37 313.356 1307.8 311.052 1307.8 308.436C1307.8 305.82 1308.37 303.528 1309.5 301.56C1310.62 299.568 1312.18 298.032 1314.18 296.952C1316.19 295.848 1318.47 295.296 1321.02 295.296C1324.5 295.296 1327.38 296.208 1329.66 298.032V300.768C1327.5 298.824 1324.69 297.852 1321.23 297.852C1319.19 297.852 1317.37 298.284 1315.76 299.148C1314.15 300.012 1312.89 301.248 1311.98 302.856C1311.07 304.44 1310.61 306.3 1310.61 308.436C1310.61 310.572 1311.07 312.444 1311.98 314.052C1312.92 315.636 1314.19 316.86 1315.8 317.724C1317.4 318.588 1319.22 319.02 1321.23 319.02C1323.03 319.02 1324.64 318.78 1326.06 318.3C1327.47 317.82 1328.78 317.028 1329.98 315.924V318.696C1327.84 320.592 1324.86 321.54 1321.02 321.54ZM1339.15 298.896L1333.57 302.928V300.156L1339.44 295.836H1341.96V321H1339.15V298.896ZM1359.48 321.54C1356.93 321.54 1354.65 321 1352.64 319.92C1350.64 318.84 1349.08 317.316 1347.96 315.348C1346.83 313.356 1346.26 311.052 1346.26 308.436C1346.26 305.82 1346.83 303.528 1347.96 301.56C1349.08 299.568 1350.64 298.032 1352.64 296.952C1354.65 295.848 1356.93 295.296 1359.48 295.296C1362.96 295.296 1365.84 296.208 1368.12 298.032V300.768C1365.96 298.824 1363.15 297.852 1359.69 297.852C1357.65 297.852 1355.83 298.284 1354.22 299.148C1352.61 300.012 1351.35 301.248 1350.44 302.856C1349.53 304.44 1349.07 306.3 1349.07 308.436C1349.07 310.572 1349.53 312.444 1350.44 314.052C1351.38 315.636 1352.65 316.86 1354.26 317.724C1355.86 318.588 1357.68 319.02 1359.69 319.02C1361.49 319.02 1363.1 318.78 1364.52 318.3C1365.93 317.82 1367.24 317.028 1368.44 315.924V318.696C1366.3 320.592 1363.32 321.54 1359.48 321.54ZM1372.03 319.128L1377.94 313.224L1379.67 311.568C1381.06 310.224 1382.13 309.144 1382.87 308.328C1383.61 307.488 1384.23 306.6 1384.71 305.664C1385.19 304.704 1385.43 303.684 1385.43 302.604C1385.43 301.044 1384.96 299.844 1384.02 299.004C1383.11 298.14 1381.74 297.708 1379.92 297.708C1377.66 297.708 1375.44 298.524 1373.26 300.156V297.42C1375.23 296.004 1377.58 295.296 1380.31 295.296C1382.79 295.296 1384.72 295.968 1386.11 297.312C1387.53 298.632 1388.23 300.396 1388.23 302.604C1388.23 303.756 1387.97 304.884 1387.44 305.988C1386.91 307.068 1386.18 308.16 1385.25 309.264C1384.33 310.344 1383.09 311.676 1381.5 313.26L1376.17 318.624H1389.24V321H1372.03V319.128ZM1404.62 314.592H1392.13V312.576L1404.44 295.836H1407.43V312.216H1411.31V314.592H1407.43V321H1404.62V314.592ZM1404.83 312.216V299.292L1395.44 312.216H1404.83Z" fill="black"/>
<circle cx="1118" cy="164" r="95" fill="#D0D2D3"/>
<path d="M1055.52 295.836H1063.3C1065.98 295.836 1068.31 296.34 1070.28 297.348C1072.27 298.356 1073.8 299.796 1074.85 301.668C1075.91 303.54 1076.44 305.748 1076.44 308.292C1076.44 312.492 1075.24 315.66 1072.84 317.796C1070.44 319.932 1067.06 321 1062.72 321H1055.52V295.836ZM1062.54 318.624C1066.33 318.624 1069.13 317.76 1070.93 316.032C1072.73 314.28 1073.63 311.7 1073.63 308.292C1073.63 305.124 1072.75 302.652 1071 300.876C1069.25 299.1 1066.67 298.212 1063.26 298.212H1058.33V318.624H1062.54ZM1090.16 321.54C1088.05 321.54 1086.23 321.012 1084.72 319.956C1083.21 318.9 1082.05 317.388 1081.23 315.42C1080.44 313.452 1080.04 311.124 1080.04 308.436C1080.04 305.748 1080.44 303.42 1081.23 301.452C1082.02 299.484 1083.17 297.972 1084.69 296.916C1086.2 295.836 1088.02 295.296 1090.16 295.296C1092.29 295.296 1094.12 295.836 1095.63 296.916C1097.14 297.972 1098.29 299.484 1099.09 301.452C1099.88 303.42 1100.27 305.748 1100.27 308.436C1100.27 311.124 1099.87 313.452 1099.05 315.42C1098.26 317.388 1097.11 318.9 1095.59 319.956C1094.08 321.012 1092.27 321.54 1090.16 321.54ZM1090.16 319.164C1091.67 319.164 1092.98 318.732 1094.08 317.868C1095.21 316.98 1096.07 315.732 1096.67 314.124C1097.3 312.492 1097.61 310.596 1097.61 308.436C1097.61 306.276 1097.31 304.392 1096.71 302.784C1096.13 301.176 1095.28 299.928 1094.15 299.04C1093.03 298.152 1091.69 297.708 1090.16 297.708C1088.62 297.708 1087.29 298.152 1086.16 299.04C1085.03 299.928 1084.17 301.176 1083.57 302.784C1082.99 304.392 1082.71 306.276 1082.71 308.436C1082.71 310.596 1083.01 312.492 1083.61 314.124C1084.23 315.732 1085.09 316.98 1086.2 317.868C1087.33 318.732 1088.65 319.164 1090.16 319.164ZM1104.6 295.836H1112.37C1115.06 295.836 1117.39 296.34 1119.36 297.348C1121.35 298.356 1122.87 299.796 1123.93 301.668C1124.99 303.54 1125.51 305.748 1125.51 308.292C1125.51 312.492 1124.31 315.66 1121.91 317.796C1119.51 319.932 1116.14 321 1111.8 321H1104.6V295.836ZM1111.62 318.624C1115.41 318.624 1118.21 317.76 1120.01 316.032C1121.81 314.28 1122.71 311.7 1122.71 308.292C1122.71 305.124 1121.83 302.652 1120.08 300.876C1118.33 299.1 1115.75 298.212 1112.34 298.212H1107.41V318.624H1111.62ZM1129.12 319.128L1135.02 313.224L1136.75 311.568C1138.14 310.224 1139.21 309.144 1139.96 308.328C1140.7 307.488 1141.31 306.6 1141.79 305.664C1142.27 304.704 1142.51 303.684 1142.51 302.604C1142.51 301.044 1142.04 299.844 1141.11 299.004C1140.2 298.14 1138.83 297.708 1137 297.708C1134.75 297.708 1132.53 298.524 1130.34 300.156V297.42C1132.31 296.004 1134.66 295.296 1137.4 295.296C1139.87 295.296 1141.8 295.968 1143.2 297.312C1144.61 298.632 1145.32 300.396 1145.32 302.604C1145.32 303.756 1145.06 304.884 1144.53 305.988C1144 307.068 1143.27 308.16 1142.33 309.264C1141.42 310.344 1140.17 311.676 1138.59 313.26L1133.26 318.624H1146.33V321H1129.12V319.128ZM1150.65 295.836H1158.43C1161.12 295.836 1163.44 296.34 1165.41 297.348C1167.4 298.356 1168.93 299.796 1169.98 301.668C1171.04 303.54 1171.57 305.748 1171.57 308.292C1171.57 312.492 1170.37 315.66 1167.97 317.796C1165.57 319.932 1162.2 321 1157.85 321H1150.65V295.836ZM1157.67 318.624C1161.46 318.624 1164.26 317.76 1166.06 316.032C1167.86 314.28 1168.76 311.7 1168.76 308.292C1168.76 305.124 1167.88 302.652 1166.13 300.876C1164.38 299.1 1161.8 298.212 1158.39 298.212H1153.46V318.624H1157.67ZM1182.63 321.54C1181.24 321.54 1179.88 321.432 1178.56 321.216C1177.26 321 1176.14 320.676 1175.18 320.244V317.688C1177.31 318.648 1179.7 319.128 1182.34 319.128C1186.95 319.128 1189.25 317.46 1189.25 314.124C1189.25 312.468 1188.64 311.268 1187.42 310.524C1186.19 309.78 1184.38 309.408 1181.98 309.408H1179.21V307.032H1181.91C1183.85 307.032 1185.42 306.624 1186.62 305.808C1187.85 304.968 1188.46 303.78 1188.46 302.244C1188.46 299.22 1186.58 297.708 1182.81 297.708C1181.49 297.708 1180.29 297.864 1179.21 298.176C1178.15 298.488 1177.05 299.004 1175.9 299.724V297.204C1177.96 295.932 1180.36 295.296 1183.1 295.296C1185.76 295.296 1187.79 295.92 1189.18 297.168C1190.57 298.392 1191.27 300.084 1191.27 302.244C1191.27 305.172 1189.71 307.152 1186.59 308.184C1188.34 308.496 1189.68 309.168 1190.62 310.2C1191.58 311.232 1192.06 312.54 1192.06 314.124C1192.06 316.38 1191.3 318.18 1189.79 319.524C1188.28 320.868 1185.89 321.54 1182.63 321.54Z" fill="black"/>
<circle cx="886" cy="164" r="95" fill="white"/>
<path d="M823.52 295.836H839.72V298.212H826.328V307.212H836.372V309.588H826.328V321H823.52V295.836ZM843.313 295.836H859.513V298.212H846.121V307.212H856.165V309.588H846.121V321H843.313V295.836ZM863.106 295.836H879.306V298.212H865.914V307.212H875.958V309.588H865.914V321H863.106V295.836ZM882.899 295.836H899.099V298.212H885.707V307.212H895.751V309.588H885.707V321H882.899V295.836ZM902.692 295.836H918.892V298.212H905.5V307.212H915.544V309.588H905.5V321H902.692V295.836ZM922.485 295.836H938.685V298.212H925.293V307.212H935.337V309.588H925.293V321H922.485V295.836Z" fill="black"/>
<circle cx="654" cy="164" r="95" fill="#92E3FF"/>
<path d="M597.172 321.54C595.948 321.54 594.892 321.42 594.004 321.18V318.696C594.868 318.984 595.852 319.128 596.956 319.128C599.788 319.128 601.924 318.276 603.364 316.572C604.804 314.868 605.644 312.288 605.884 308.832C605.236 309.84 604.3 310.608 603.076 311.136C601.852 311.64 600.484 311.892 598.972 311.892C597.364 311.892 595.936 311.556 594.688 310.884C593.464 310.212 592.504 309.252 591.808 308.004C591.136 306.756 590.8 305.316 590.8 303.684C590.8 302.052 591.16 300.612 591.88 299.364C592.6 298.092 593.62 297.096 594.94 296.376C596.284 295.656 597.856 295.296 599.656 295.296C602.416 295.296 604.624 296.184 606.28 297.96C607.96 299.736 608.8 302.352 608.8 305.808C608.8 310.92 607.816 314.82 605.848 317.508C603.88 320.196 600.988 321.54 597.172 321.54ZM599.656 309.48C601.408 309.48 602.86 308.952 604.012 307.896C605.188 306.84 605.776 305.4 605.776 303.576C605.776 302.52 605.512 301.548 604.984 300.66C604.48 299.748 603.76 299.028 602.824 298.5C601.912 297.948 600.856 297.672 599.656 297.672C597.832 297.672 596.368 298.224 595.264 299.328C594.16 300.408 593.608 301.86 593.608 303.684C593.608 305.508 594.148 306.936 595.228 307.968C596.332 308.976 597.808 309.48 599.656 309.48ZM612.386 319.128L618.29 313.224L620.018 311.568C621.41 310.224 622.478 309.144 623.222 308.328C623.966 307.488 624.578 306.6 625.058 305.664C625.538 304.704 625.778 303.684 625.778 302.604C625.778 301.044 625.31 299.844 624.374 299.004C623.462 298.14 622.094 297.708 620.27 297.708C618.014 297.708 615.794 298.524 613.61 300.156V297.42C615.578 296.004 617.93 295.296 620.666 295.296C623.138 295.296 625.07 295.968 626.462 297.312C627.878 298.632 628.586 300.396 628.586 302.604C628.586 303.756 628.322 304.884 627.794 305.988C627.266 307.068 626.534 308.16 625.598 309.264C624.686 310.344 623.438 311.676 621.854 313.26L616.526 318.624H629.594V321H612.386V319.128ZM633.918 295.836H650.118V298.212H636.726V307.212H646.77V309.588H636.726V318.624H650.118V321H633.918V295.836ZM661.182 321.54C659.79 321.54 658.434 321.432 657.114 321.216C655.818 321 654.69 320.676 653.73 320.244V317.688C655.866 318.648 658.254 319.128 660.894 319.128C665.502 319.128 667.806 317.46 667.806 314.124C667.806 312.468 667.194 311.268 665.97 310.524C664.746 309.78 662.934 309.408 660.534 309.408H657.762V307.032H660.462C662.406 307.032 663.978 306.624 665.178 305.808C666.402 304.968 667.014 303.78 667.014 302.244C667.014 299.22 665.13 297.708 661.362 297.708C660.042 297.708 658.842 297.864 657.762 298.176C656.706 298.488 655.602 299.004 654.45 299.724V297.204C656.514 295.932 658.914 295.296 661.65 295.296C664.314 295.296 666.342 295.92 667.734 297.168C669.126 298.392 669.822 300.084 669.822 302.244C669.822 305.172 668.262 307.152 665.142 308.184C666.894 308.496 668.238 309.168 669.174 310.2C670.134 311.232 670.614 312.54 670.614 314.124C670.614 316.38 669.858 318.18 668.346 319.524C666.834 320.868 664.446 321.54 661.182 321.54ZM674.946 295.836H691.146V298.212H677.754V307.212H687.798V309.588H677.754V321H674.946V295.836ZM694.739 295.836H710.939V298.212H697.547V307.212H707.591V309.588H697.547V321H694.739V295.836Z" fill="black"/>
<circle cx="422" cy="164" r="95" fill="#00A1E8"/>
<path d="M368.916 321.54C366.804 321.54 364.992 321.012 363.48 319.956C361.968 318.9 360.804 317.388 359.988 315.42C359.196 313.452 358.8 311.124 358.8 308.436C358.8 305.748 359.196 303.42 359.988 301.452C360.78 299.484 361.932 297.972 363.444 296.916C364.956 295.836 366.78 295.296 368.916 295.296C371.052 295.296 372.876 295.836 374.388 296.916C375.9 297.972 377.052 299.484 377.844 301.452C378.636 303.42 379.032 305.748 379.032 308.436C379.032 311.124 378.624 313.452 377.808 315.42C377.016 317.388 375.864 318.9 374.352 319.956C372.84 321.012 371.028 321.54 368.916 321.54ZM368.916 319.164C370.428 319.164 371.736 318.732 372.84 317.868C373.968 316.98 374.832 315.732 375.432 314.124C376.056 312.492 376.368 310.596 376.368 308.436C376.368 306.276 376.068 304.392 375.468 302.784C374.892 301.176 374.04 299.928 372.912 299.04C371.784 298.152 370.452 297.708 368.916 297.708C367.38 297.708 366.048 298.152 364.92 299.04C363.792 299.928 362.928 301.176 362.328 302.784C361.752 304.392 361.464 306.276 361.464 308.436C361.464 310.596 361.764 312.492 362.364 314.124C362.988 315.732 363.852 316.98 364.956 317.868C366.084 318.732 367.404 319.164 368.916 319.164ZM392.752 321.54C390.64 321.54 388.828 321.012 387.316 319.956C385.804 318.9 384.64 317.388 383.824 315.42C383.032 313.452 382.636 311.124 382.636 308.436C382.636 305.748 383.032 303.42 383.824 301.452C384.616 299.484 385.768 297.972 387.28 296.916C388.792 295.836 390.616 295.296 392.752 295.296C394.888 295.296 396.712 295.836 398.224 296.916C399.736 297.972 400.888 299.484 401.68 301.452C402.472 303.42 402.868 305.748 402.868 308.436C402.868 311.124 402.46 313.452 401.644 315.42C400.852 317.388 399.7 318.9 398.188 319.956C396.676 321.012 394.864 321.54 392.752 321.54ZM392.752 319.164C394.264 319.164 395.572 318.732 396.676 317.868C397.804 316.98 398.668 315.732 399.268 314.124C399.892 312.492 400.204 310.596 400.204 308.436C400.204 306.276 399.904 304.392 399.304 302.784C398.728 301.176 397.876 299.928 396.748 299.04C395.62 298.152 394.288 297.708 392.752 297.708C391.216 297.708 389.884 298.152 388.756 299.04C387.628 299.928 386.764 301.176 386.164 302.784C385.588 304.392 385.3 306.276 385.3 308.436C385.3 310.596 385.6 312.492 386.2 314.124C386.824 315.732 387.688 316.98 388.792 317.868C389.92 318.732 391.24 319.164 392.752 319.164ZM416.516 295.836H419.144L429.188 321H426.308L423.608 314.268H412.016L409.352 321H406.472L416.516 295.836ZM422.816 311.892L417.812 299.076L412.844 311.892H422.816ZM438.384 298.896L432.804 302.928V300.156L438.672 295.836H441.192V321H438.384V298.896ZM446.215 295.836H462.415V298.212H449.023V307.212H459.067V309.588H449.023V318.624H462.415V321H446.215V295.836ZM474.883 321.54C472.147 321.54 469.987 320.916 468.403 319.668C466.819 318.396 466.027 316.584 466.027 314.232C466.027 312.552 466.483 311.16 467.395 310.056C468.307 308.928 469.507 308.184 470.995 307.824C469.747 307.416 468.751 306.696 468.007 305.664C467.287 304.632 466.927 303.42 466.927 302.028C466.927 299.964 467.647 298.332 469.087 297.132C470.551 295.908 472.483 295.296 474.883 295.296C477.283 295.296 479.203 295.908 480.643 297.132C482.107 298.332 482.839 299.964 482.839 302.028C482.839 303.42 482.467 304.632 481.723 305.664C481.003 306.696 480.019 307.416 478.771 307.824C480.259 308.184 481.459 308.928 482.371 310.056C483.283 311.16 483.739 312.552 483.739 314.232C483.739 316.584 482.947 318.396 481.363 319.668C479.779 320.916 477.619 321.54 474.883 321.54ZM474.883 306.852C476.419 306.852 477.655 306.432 478.591 305.592C479.551 304.752 480.031 303.648 480.031 302.28C480.031 300.864 479.563 299.724 478.627 298.86C477.691 297.972 476.443 297.528 474.883 297.528C473.323 297.528 472.075 297.972 471.139 298.86C470.203 299.724 469.735 300.864 469.735 302.28C469.735 303.648 470.203 304.752 471.139 305.592C472.099 306.432 473.347 306.852 474.883 306.852ZM474.883 319.452C476.803 319.452 478.291 318.972 479.347 318.012C480.403 317.052 480.931 315.72 480.931 314.016C480.931 312.408 480.367 311.136 479.239 310.2C478.135 309.24 476.683 308.76 474.883 308.76C473.083 308.76 471.619 309.24 470.491 310.2C469.387 311.136 468.835 312.408 468.835 314.016C468.835 315.72 469.363 317.052 470.419 318.012C471.475 318.972 472.963 319.452 474.883 319.452Z" fill="black"/>
</svg>
