<svg width="320" height="320" viewBox="0 0 320 320" fill="none" xmlns="http://www.w3.org/2000/svg">
<path d="M159.67 319.34C247.853 319.34 319.34 247.853 319.34 159.67C319.34 71.4867 247.853 0 159.67 0C71.4867 0 0 71.4867 0 159.67C0 247.853 71.4867 319.34 159.67 319.34Z" fill="url(#paint0_radial_404_121)"/>
<path d="M159.82 112.25H64.67C38.57 112.25 17.41 133.41 17.41 159.51C17.41 185.61 38.57 206.77 64.67 206.77H112.56V254.66C112.56 280.76 133.72 301.92 159.82 301.92C185.92 301.92 207.08 280.76 207.08 254.66V159.51C207.08 133.41 185.92 112.25 159.82 112.25Z" fill="url(#paint1_radial_404_121)"/>
<path d="M206.77 81.56V64.67C206.77 38.57 185.61 17.41 159.51 17.41C142.92 17.41 128.35 25.97 119.92 38.9C118.48 41.61 107.89 63.09 124.3 80.86C124.52 81.09 124.74 81.32 124.97 81.56C125.31 81.91 125.66 82.27 126.03 82.62C139.79 96.21 164.99 112.56 206.77 112.56H237.77C207.19 112.59 206.77 81.56 206.77 81.56Z" fill="url(#paint2_linear_404_121)"/>
<path d="M119.97 38.82C119.97 38.82 119.95 38.85 119.94 38.87C119.94 38.86 119.95 38.85 119.96 38.84C119.96 38.84 119.96 38.83 119.96 38.82H119.97Z" fill="url(#paint3_linear_404_121)"/>
<path d="M119.92 38.9C119.92 38.9 119.92 38.92 119.91 38.92C119.92 38.9 119.93 38.88 119.95 38.86C119.95 38.87 119.93 38.88 119.93 38.89L119.92 38.9Z" fill="url(#paint4_linear_404_121)"/>
<path d="M254.66 112.56H206.77C164.99 112.56 139.78 96.21 126.03 82.62C125.66 82.27 125.31 81.92 124.97 81.56C124.74 81.33 124.52 81.1 124.3 80.86C107.92 63.13 118.42 41.71 119.9 38.92C115.07 46.33 112.24 55.16 112.24 64.67V159.82C112.24 185.92 133.4 207.08 159.5 207.08H254.65C280.75 207.08 301.91 185.92 301.91 159.82C301.91 133.72 280.75 112.56 254.65 112.56H254.66Z" fill="url(#paint5_linear_404_121)"/>
<path d="M46.04 169.54C44.86 168.99 43.8 168.19 42.87 167.12V169.8H39.36V149.86H43.01V163.95C44.42 166.24 46.35 167.38 48.81 167.38C50.36 167.38 51.54 167 52.34 166.24C53.14 165.48 53.54 164.36 53.54 162.87V149.86H57.19V163.02C57.19 165.18 56.53 166.95 55.22 168.31C53.91 169.68 52.09 170.36 49.78 170.36C48.47 170.36 47.22 170.09 46.04 169.54Z" fill="white"/>
<path d="M68.56 156.9C68.56 155.31 68.25 154.15 67.63 153.41C67.01 152.68 65.91 152.31 64.34 152.31C62.77 152.31 61.38 152.66 60.05 153.35V150.37C60.62 150.07 61.37 149.82 62.29 149.61C63.21 149.4 64.12 149.29 65.03 149.29C67.44 149.29 69.24 149.97 70.43 151.32C71.62 152.67 72.22 154.62 72.22 157.15V169.79H68.57V156.89L68.56 156.9Z" fill="white"/>
<path d="M78.62 168.72C76.97 167.63 76.15 166.04 76.15 163.95C76.15 162.86 76.44 161.89 77.03 161.06C77.61 160.23 78.4 159.65 79.37 159.33C78.44 158.91 77.69 158.3 77.13 157.5C76.57 156.71 76.29 155.79 76.29 154.74C76.29 153.1 76.81 151.78 77.86 150.79C78.91 149.8 80.45 149.3 82.48 149.3C83.05 149.3 83.64 149.34 84.23 149.43C84.83 149.52 85.3 149.61 85.66 149.71V152.69C85.35 152.57 84.95 152.47 84.46 152.41C83.97 152.35 83.52 152.32 83.12 152.32C82.09 152.32 81.31 152.55 80.78 153.01C80.24 153.47 79.97 154.12 79.97 154.97C79.97 155.86 80.26 156.55 80.83 157.02C81.4 157.49 82.25 157.73 83.37 157.73H85.66V160.86H83.41C82.26 160.86 81.38 161.11 80.76 161.62C80.14 162.13 79.83 162.91 79.83 163.95C79.83 164.99 80.31 165.89 81.28 166.49C82.25 167.09 83.56 167.38 85.23 167.38C89.17 167.38 91.14 165.64 91.14 162.16V149.86H94.79V162.09C94.79 163.48 94.48 164.81 93.86 166.06C93.24 167.31 92.22 168.35 90.8 169.15C89.38 169.96 87.53 170.36 85.24 170.36C82.47 170.36 80.27 169.81 78.62 168.72Z" fill="white"/>
<path d="M141.44 168.77C140.83 168.09 140.53 167.12 140.53 165.88V149.85H144.18V164.84C144.18 165.51 144.31 165.98 144.57 166.24C144.83 166.5 145.29 166.63 145.93 166.63H147.22V169.8H144.11C142.94 169.8 142.05 169.46 141.44 168.77Z" fill="white"/>
<path d="M150.09 149.85H153.74L157.21 164.46L161.36 149.85H164.15L168.27 164.46L172.89 143.17H176.47L170.1 169.79H167.02L162.76 154.8L158.47 169.79H155.39L150.09 149.85Z" fill="white"/>
<path d="M156.06 144.34H169.23V146.91H156.06V144.34Z" fill="white"/>
<path d="M180.83 169.89C179.47 169.58 178.41 169.13 177.65 168.53V165.47C178.68 166.12 179.8 166.61 181.03 166.94C182.26 167.27 183.43 167.44 184.56 167.44C186.13 167.44 187.27 167.25 187.96 166.86C188.65 166.48 189 165.81 189 164.87C189 164.22 188.83 163.7 188.5 163.3C188.17 162.9 187.66 162.55 186.98 162.26C186.3 161.96 185.23 161.59 183.78 161.14C181.68 160.47 180.12 159.68 179.09 158.77C178.06 157.86 177.55 156.6 177.55 154.99C177.55 153.15 178.23 151.74 179.59 150.76C180.95 149.78 182.81 149.29 185.17 149.29C186.39 149.29 187.56 149.43 188.69 149.72C189.82 150.01 190.76 150.39 191.5 150.86V153.99C190.69 153.47 189.76 153.06 188.71 152.76C187.66 152.46 186.59 152.31 185.49 152.31C182.63 152.31 181.2 153.2 181.2 154.99C181.2 155.66 181.4 156.2 181.79 156.59C182.18 156.99 182.71 157.32 183.36 157.58C184.02 157.84 185.12 158.21 186.67 158.68C188.2 159.15 189.39 159.66 190.25 160.21C191.11 160.76 191.72 161.4 192.08 162.15C192.44 162.9 192.62 163.82 192.62 164.91C192.62 166.55 191.98 167.87 190.69 168.86C189.4 169.85 187.46 170.35 184.86 170.35C183.55 170.35 182.21 170.19 180.85 169.88L180.83 169.89Z" fill="white"/>
<path d="M183.33 144.78C183.33 142.84 184.34 141.87 186.37 141.87H194.28V144.37H187.8C187.37 144.37 187.07 144.46 186.91 144.63C186.74 144.8 186.66 145.11 186.66 145.56V146.9H183.33V144.78Z" fill="white"/>
<path d="M197.7 168.7C196.45 167.59 195.82 166.02 195.82 163.98C195.82 161.94 196.52 160.36 197.91 159.17C199.31 157.98 201.2 157.38 203.58 157.38C205.96 157.38 208.07 157.84 209.95 158.76V157.23C209.95 155.52 209.5 154.27 208.61 153.48C207.72 152.7 206.23 152.31 204.15 152.31C203.01 152.31 201.88 152.42 200.79 152.65C199.69 152.87 198.74 153.18 197.93 153.58V150.6C198.67 150.23 199.68 149.92 200.95 149.67C202.23 149.42 203.47 149.3 204.69 149.3C206.84 149.3 208.63 149.71 210.06 150.53L211.89 148.37H215.93L212.32 152.58C213.18 153.85 213.61 155.38 213.61 157.17V169.81H209.96V161.8C208.22 160.88 206.23 160.42 203.98 160.42C202.43 160.42 201.29 160.72 200.56 161.31C199.83 161.91 199.47 162.8 199.47 163.99C199.47 166.25 200.87 167.38 203.66 167.38C204.52 167.38 205.27 167.26 205.91 167.01V169.96C205.05 170.23 204 170.37 202.76 170.37C200.64 170.37 198.95 169.82 197.7 168.71V168.7Z" fill="white"/>
<path d="M220.12 168.86C219.57 168.23 219.29 167.36 219.29 166.23V148.83H221.25V165.95C221.25 166.73 221.41 167.28 221.74 167.6C222.07 167.92 222.61 168.07 223.36 168.07H224.75V169.79H222.53C221.48 169.79 220.67 169.48 220.12 168.85V168.86ZM228.92 168.86C228.37 168.23 228.09 167.36 228.09 166.23V148.83H230.08V165.95C230.08 166.73 230.24 167.28 230.57 167.6C230.9 167.91 231.44 168.07 232.19 168.07H233.54V169.79H231.32C230.27 169.79 229.46 169.48 228.91 168.85L228.92 168.86Z" fill="white"/>
<path d="M238.44 156.28C238.44 153.72 239.22 151.74 240.77 150.34C242.33 148.94 244.49 148.24 247.28 148.24C250.07 148.24 252.27 148.94 253.83 150.34C255.38 151.74 256.16 153.72 256.16 156.28V169.8H254.17V156.28C254.17 154.16 253.56 152.58 252.33 151.52C251.1 150.46 249.42 149.93 247.29 149.93C245.16 149.93 243.48 150.46 242.25 151.52C241.02 152.58 240.41 154.16 240.41 156.28V161.49C240.81 160.71 241.43 160.07 242.25 159.57C243.08 159.07 244.06 158.82 245.18 158.82H248.08V160.51H244.96C244.13 160.51 243.37 160.73 242.68 161.18C241.99 161.62 241.44 162.19 241.02 162.89C240.6 163.59 240.4 164.28 240.4 164.99V169.81H238.44V156.29V156.28Z" fill="white"/>
<path d="M264.3 169.84C262.96 169.47 261.89 168.98 261.08 168.35V166.59C262.11 167.3 263.23 167.82 264.45 168.18C265.67 168.53 266.89 168.71 268.12 168.71C270.05 168.71 271.45 168.41 272.33 167.81C273.21 167.21 273.65 166.27 273.65 164.99C273.65 164.13 273.49 163.42 273.18 162.87C272.87 162.32 272.3 161.83 271.47 161.4C270.64 160.97 269.43 160.53 267.82 160.09C266.26 159.62 265.02 159.15 264.08 158.68C263.14 158.21 262.4 157.6 261.86 156.84C261.32 156.08 261.05 155.1 261.05 153.9C261.05 152.07 261.7 150.67 262.99 149.71C264.28 148.74 266.08 148.26 268.39 148.26C269.54 148.26 270.66 148.41 271.74 148.71C272.82 149.01 273.72 149.41 274.45 149.91V151.63C272.64 150.51 270.66 149.95 268.51 149.95C264.82 149.95 262.98 151.27 262.98 153.91C262.98 154.8 263.18 155.52 263.58 156.07C263.98 156.62 264.6 157.08 265.44 157.46C266.28 157.84 267.52 158.25 269.15 158.69C270.78 159.16 272.05 159.66 272.97 160.18C273.89 160.7 274.56 161.34 274.98 162.1C275.41 162.86 275.62 163.82 275.62 165C275.62 166.65 275.02 167.96 273.83 168.94C272.64 169.92 270.76 170.41 268.21 170.41C266.96 170.41 265.66 170.23 264.32 169.86L264.3 169.84Z" fill="white"/>
<path d="M266.99 143.5C266.99 141.88 267.83 141.07 269.51 141.07H277.82V142.6H270.26C269.71 142.6 269.33 142.7 269.13 142.89C268.93 143.09 268.83 143.43 268.83 143.93V145.22H266.99V143.5Z" fill="white"/>
<defs>
<radialGradient id="paint0_radial_404_121" cx="0" cy="0" r="1" gradientUnits="userSpaceOnUse" gradientTransform="translate(165.84 159.67) scale(219.17)">
<stop offset="0.42" stop-color="white"/>
<stop offset="0.66" stop-color="#E5E6E7"/>
<stop offset="0.79" stop-color="#F6F7F7"/>
<stop offset="0.89" stop-color="white"/>
</radialGradient>
<radialGradient id="paint1_radial_404_121" cx="0" cy="0" r="1" gradientUnits="userSpaceOnUse" gradientTransform="translate(196.29 122.69) scale(235.86 235.86)">
<stop offset="0.24" stop-color="#92E3FF"/>
<stop offset="0.3" stop-color="#8DE0FE"/>
<stop offset="0.37" stop-color="#7EDAFC"/>
<stop offset="0.45" stop-color="#67CFF8"/>
<stop offset="0.53" stop-color="#46C0F3"/>
<stop offset="0.62" stop-color="#1DAEEC"/>
<stop offset="0.67" stop-color="#00A1E8"/>
<stop offset="0.69" stop-color="#06A3E8"/>
<stop offset="0.72" stop-color="#17ABEB"/>
<stop offset="0.75" stop-color="#34B8F0"/>
<stop offset="0.79" stop-color="#5DCBF6"/>
<stop offset="0.83" stop-color="#92E3FF"/>
</radialGradient>
<linearGradient id="paint2_linear_404_121" x1="186.03" y1="49.72" x2="163.51" y2="127.03" gradientUnits="userSpaceOnUse">
<stop offset="0.16" stop-color="#EC1C24"/>
<stop offset="0.4" stop-color="#CA0F13"/>
<stop offset="0.65" stop-color="#AD0405"/>
<stop offset="0.8" stop-color="#A20000"/>
</linearGradient>
<linearGradient id="paint3_linear_404_121" x1="119.94" y1="38.85" x2="119.97" y2="38.85" gradientUnits="userSpaceOnUse">
<stop stop-color="#EC1C24"/>
<stop offset="0.19" stop-color="#E71920"/>
<stop offset="0.4" stop-color="#DA1115"/>
<stop offset="0.62" stop-color="#C40304"/>
<stop offset="0.67" stop-color="#BF0000"/>
<stop offset="0.8" stop-color="#DD1318"/>
<stop offset="0.86" stop-color="#EC1C24"/>
</linearGradient>
<linearGradient id="paint4_linear_404_121" x1="119.91" y1="38.9" x2="119.94" y2="38.9" gradientUnits="userSpaceOnUse">
<stop stop-color="#EC1C24"/>
<stop offset="0.19" stop-color="#E71920"/>
<stop offset="0.4" stop-color="#DA1115"/>
<stop offset="0.62" stop-color="#C40304"/>
<stop offset="0.67" stop-color="#BF0000"/>
<stop offset="0.8" stop-color="#DD1318"/>
<stop offset="0.86" stop-color="#EC1C24"/>
</linearGradient>
<linearGradient id="paint5_linear_404_121" x1="112.25" y1="123.01" x2="301.92" y2="123.01" gradientUnits="userSpaceOnUse">
<stop stop-color="#EC1C24"/>
<stop offset="0.19" stop-color="#E71920"/>
<stop offset="0.4" stop-color="#DA1115"/>
<stop offset="0.62" stop-color="#C40304"/>
<stop offset="0.67" stop-color="#BF0000"/>
<stop offset="0.8" stop-color="#DD1318"/>
<stop offset="0.86" stop-color="#EC1C24"/>
</linearGradient>
</defs>
</svg>
